<svg width="196" height="172" viewBox="0 0 196 172" fill="none" xmlns="http://www.w3.org/2000/svg">
<g filter="url(#filter0_d_1_141)">
<path fill-rule="evenodd" clip-rule="evenodd" d="M152.282 171.294L37.7486 171.294C33.6965 171.294 29.6474 170.685 25.416 168.667C20.3436 166.248 17.6539 162.434 15.7694 159.614C15.6228 159.395 15.4857 159.169 15.3588 158.937C13.1431 154.902 12.001 150.544 12.001 145.857C12.001 141.403 13.0367 136.551 15.3588 132.322C15.3807 132.281 15.4033 132.242 15.4259 132.201L87.7866 5.01413C89.3823 2.20897 92.3192 0.488861 95.491 0.500061C98.6628 0.511246 101.588 2.25374 103.164 5.0701L174.196 131.986C174.216 132.02 174.237 132.054 174.257 132.089C175.883 134.83 178.397 139.069 178.837 144.539C179.241 149.57 178.136 154.61 175.666 158.98C173.195 163.351 169.477 166.845 165.004 168.983C160.208 171.277 155.348 171.294 152.282 171.294ZM104.338 153.125H152.282C155.432 153.125 156.641 152.926 157.487 152.522C158.656 151.964 159.637 151.045 160.294 149.884C160.95 148.722 161.247 147.376 161.139 146.028C161.077 145.256 160.769 144.372 158.954 141.309C158.916 141.244 158.879 141.179 158.843 141.115L104.338 43.7296V153.125ZM86.581 153.125V43.2483L30.8143 141.269C30.1849 142.439 29.7583 144.13 29.7583 145.857C29.7583 147.258 30.042 148.474 30.6765 149.728C31.3423 150.708 31.7478 151.226 32.087 151.581C32.378 151.885 32.6019 152.048 32.9184 152.199C34.237 152.828 35.5862 153.125 37.7486 153.125H86.581Z" fill="#784FFE"/>
</g>
<path d="M131.337 55.5152L120.964 74.4844L159.149 142.497C161.772 147.168 158.391 152.933 153.034 152.924L103.97 152.845V93.6794L86.0939 121.23V152.845H63.1414L48.9124 171.294H153.403C172.49 171.294 184.537 150.768 175.23 134.104L131.337 55.5152Z" fill="#9271FE"/>
<defs>
<filter id="filter0_d_1_141" x="0.0010376" y="0.500008" width="178.917" height="170.794" filterUnits="userSpaceOnUse" color-interpolation-filters="sRGB">
<feFlood flood-opacity="0" result="BackgroundImageFix"/>
<feColorMatrix in="SourceAlpha" type="matrix" values="0 0 0 0 0 0 0 0 0 0 0 0 0 0 0 0 0 0 127 0" result="hardAlpha"/>
<feOffset dx="-12"/>
<feComposite in2="hardAlpha" operator="out"/>
<feColorMatrix type="matrix" values="0 0 0 0 0 0 0 0 0 0 0 0 0 0 0 0 0 0 1 0"/>
<feBlend mode="normal" in2="BackgroundImageFix" result="effect1_dropShadow_1_141"/>
<feBlend mode="normal" in="SourceGraphic" in2="effect1_dropShadow_1_141" result="shape"/>
</filter>
</defs>
</svg>
